<svg id="juniper" xmlns="http://www.w3.org/2000/svg" viewBox="0 0 128.154 33.805">
  <path id="Union_86" data-name="Union 86" d="M10588.86,12627.427c0-2.326,1.188-3.377,3.291-3.377s3.308,1.051,3.308,3.377-1.206,3.377-3.308,3.377S10588.86,12629.753,10588.86,12627.427Zm.706,0c0,1.774.81,2.739,2.585,2.739s2.6-.947,2.6-2.739c0-1.774-.827-2.723-2.6-2.723S10589.566,12625.652,10589.566,12627.427Zm19.538,2.6.362-.534a4.181,4.181,0,0,0,2.343.654c1.361,0,1.947-.379,1.947-1.274s-.775-1.068-1.947-1.274c-1.412-.242-2.36-.482-2.36-1.811s.811-1.756,2.36-1.756,1.758.223,2.275.585l-.38.568a3.581,3.581,0,0,0-1.912-.517c-1.172,0-1.672.328-1.672,1.1s.689.982,1.844,1.206c1.431.259,2.464.465,2.464,1.879s-.826,1.93-2.619,1.93A3.34,3.34,0,0,1,10609.1,12630.028Zm-23.553.724-1.774-5.462-1.758,5.462h-.6l-2.119-6.6h.706l1.723,5.41,1.758-5.41h.6l1.758,5.41,1.74-5.41h.672l-2.1,6.6Zm22.175-.052-2.343-3.479-1.31,1.43v2.05h-.672v-6.548h.672v3.619l3.308-3.619h.811l-2.344,2.568,2.67,3.979Zm-6.65,0-1.551-2.671h-1.964v2.671h-.689v-6.548h2.825c1.517,0,2.205.6,2.205,1.913s-.533,1.792-1.671,1.947l1.586,2.688Zm-3.532-3.291h2.153l.018-.017c.931,0,1.5-.275,1.5-1.31s-.552-1.275-1.534-1.275h-2.136Zm-22.278,3.291v-5.893h-2.446v-.655h5.616v.655h-2.463v5.893Zm-7.84,0v-6.548h4.325v.655h-3.636v2.171h3.55v.655h-3.55v2.43h3.67v.637Zm-2.309,0-4.031-5.565v5.565h-.673v-6.548h.759l3.911,5.394v-5.394h.672v6.548Zm-65.4-4.238v-2.033h.826c7.6,0,7.427-3.515,7.427-7.908v-18.953h2.171v18.953c0,5.823-.4,9.941-9.6,9.941Zm0-2.048v.015C10493.719,12624.429,10499.483,12624.428,10499.713,12624.414Zm0,0c.01,0,.01,0,0,0Zm79.567-.26h0Zm8.821-14.782c0-7,2-12.371,10.941-12.371s9.563,6.2,9.511,12.767h-18.333c.053,5.772,1.482,10.08,8.994,10.08s5.824-1.086,7.771-2.516l1.223,1.6a13.967,13.967,0,0,1-8.994,2.861C10589.842,12621.793,10588.1,12616.365,10588.1,12609.37Zm2.172-1.6h16.161c-.224-4.738-.518-8.77-7.426-8.77S10590.531,12602.6,10590.273,12607.768Zm-76.4,4.256v-14.456h2.223v14.508c0,4.169-.035,7.685,7.6,7.685s7.427-3.516,7.427-7.909v-14.283h2.17v14.283c0,5.824-.4,9.942-9.6,9.942S10513.876,12617.675,10513.876,12612.023Zm103.224,7.892a1.5,1.5,0,1,1,1.5,1.5A1.5,1.5,0,0,1,10617.1,12619.915Zm.189,0a1.31,1.31,0,1,0,1.31-1.311A1.31,1.31,0,0,0,10617.289,12619.915Zm-5.6,1.395v-14.283c0-5.823.4-9.941,9.6-9.941.793,0,1.517.034,2.188.087v1.947h-2.188c-7.6,0-7.426,3.515-7.426,7.908v14.283Zm-45.16,0V12597.6h11.1c5.514,0,8,2.74,8,7.6s-2.465,7.874-8.029,7.874h-8.942v8.235Zm2.12-10.372h9.012c3.842,0,5.737-1.86,5.737-5.651s-2.051-5.565-5.841-5.565h-8.908Zm-8.236,10.372V12597.6h2.12v23.708Zm-6.254,0V12606.8c0-4.17.052-7.685-7.6-7.685s-7.426,3.515-7.426,7.908v14.283h-2.171v-14.283c0-5.823.4-9.941,9.6-9.941s9.821,4.118,9.821,9.77v14.455Zm63.837-.533v-1.724h.758c.431,0,.6.173.6.518s-.12.465-.413.517l.4.672h-.242l-.379-.655-.017.018h-.482v.655Zm.206-.9h.534l.018.017c.24,0,.361-.069.361-.327s-.138-.311-.379-.311h-.534Zm5.272-20.669v.026C10623.4,12599.229,10623.412,12599.221,10623.475,12599.212Zm0-.093c3.542.007.441.035,0,.093Z" transform="translate(-10496.997 -12596.999)" fill="#231f20"/>
</svg>
